<svg xmlns="http://www.w3.org/2000/svg" xmlns:xlink="http://www.w3.org/1999/xlink" viewBox="0 0 563.21 132.74"><defs><style>.cls-1{fill:#bcbec0;}.cls-2{fill:url(#linear-gradient);}</style><linearGradient id="linear-gradient" x1="332.41" y1="123.24" x2="585.4" y2="123.24" gradientUnits="userSpaceOnUse"><stop offset="0.06" stop-color="#f0c83b"/><stop offset="0.24" stop-color="#f1563c"/><stop offset="0.27" stop-color="#e65352"/><stop offset="0.32" stop-color="#d34f7a"/><stop offset="0.37" stop-color="#c74c92"/><stop offset="0.39" stop-color="#c34b9b"/><stop offset="0.6" stop-color="#00b3c1"/><stop offset="0.81" stop-color="#00b36c"/><stop offset="1" stop-color="#00b3c1"/></linearGradient></defs><g id="Layer_2" data-name="Layer 2"><g id="Layer_1-2" data-name="Layer 1"><path class="cls-1" d="M37.4,101.32A37.29,37.29,0,0,1,5,83.37a33.89,33.89,0,0,1-5-18,38.75,38.75,0,0,1,4.49-19A31.32,31.32,0,0,1,17.14,33.73,38.56,38.56,0,0,1,36,29.24,28.06,28.06,0,0,1,48.55,32.1a26.81,26.81,0,0,1,9.52,7.54,15.94,15.94,0,0,1,3.67,10H50.32V0H74.8V65.42A35.6,35.6,0,0,1,70,83.91,34.33,34.33,0,0,1,56.71,96.7,39.53,39.53,0,0,1,37.4,101.32Zm0-23a12.28,12.28,0,0,0,11.29-6.53,13.9,13.9,0,0,0,0-13.06A12.28,12.28,0,0,0,37.4,52.22,12.73,12.73,0,0,0,30.67,54a12.48,12.48,0,0,0-4.56,4.76,13.9,13.9,0,0,0,0,13.06,12.48,12.48,0,0,0,4.56,4.76A12.83,12.83,0,0,0,37.4,78.34Z"/><path class="cls-1" d="M107.44,101.18a41.24,41.24,0,0,1-19.52-4.55,34.2,34.2,0,0,1-13.6-12.79,36.76,36.76,0,0,1-5-19.38,36.15,36.15,0,0,1,4.55-17.95,34.77,34.77,0,0,1,12.72-13,36,36,0,0,1,18.9-4.9q11.16,0,18.9,4.9A32,32,0,0,1,136.2,46.31a37.42,37.42,0,0,1,4,17.07V69.5H89.07l3.41-4.36a17.13,17.13,0,0,0,1.83,8.1,12.79,12.79,0,0,0,5.1,5.3,15.62,15.62,0,0,0,7.75,1.84,15.44,15.44,0,0,0,8.64-2.45,14.73,14.73,0,0,0,5.51-6.39l18.76,9.38a33.9,33.9,0,0,1-12.78,14.89A36.16,36.16,0,0,1,107.44,101.18ZM94,56.85h21.89a9.56,9.56,0,0,0-2-3.6,10.42,10.42,0,0,0-3.6-2.73,11.74,11.74,0,0,0-5-1,12.65,12.65,0,0,0-5.17,1,11.4,11.4,0,0,0-3.81,2.66A11.93,11.93,0,0,0,94,56.85Z"/><path class="cls-1" d="M147.69,86,128,31.28h26.11L170.27,79a3.44,3.44,0,0,0-1-.88,1.78,1.78,0,0,0-1.64,0,3.31,3.31,0,0,0-1,.88l16.18-47.73H209L188.9,86q-2.85,7.76-8,11.63a20,20,0,0,1-12.44,3.88,20.89,20.89,0,0,1-12.65-3.88Q150.56,93.71,147.69,86Z"/><path class="cls-1" d="M242.07,99.28H203.59V7.48h38.48q17.42,0,27.2,7.07t9.8,18.91a21.24,21.24,0,0,1-3.68,12.64,22.71,22.71,0,0,1-9.93,7.82,36.24,36.24,0,0,1-14.27,2.66V51.81a54.32,54.32,0,0,1,14.14,1.77A20.22,20.22,0,0,1,275.8,60q3.94,4.7,3.94,13.26A22.79,22.79,0,0,1,277,84.59a23.1,23.1,0,0,1-7.68,8.16,36.75,36.75,0,0,1-11.9,4.9A67.05,67.05,0,0,1,242.07,99.28Zm-13.32-71.4V43.79h14.68q5.31,0,7.89-2.17a7.57,7.57,0,0,0,2.59-6.12,6.82,6.82,0,0,0-2.52-5.58q-2.52-2-8-2Zm0,36.31V78.88h14.68a24.61,24.61,0,0,0,4.76-.41,10.37,10.37,0,0,0,3.47-1.29,6.09,6.09,0,0,0,2.18-2.25,7.06,7.06,0,0,0,.74-3.39c0-2.9-1-4.86-2.92-5.85a18.35,18.35,0,0,0-8.23-1.5Z"/><path class="cls-1" d="M311.43,132.74q-13.2,0-22.1-5.45a35.52,35.52,0,0,1-13.67-15.37l20.26-10.87a19.49,19.49,0,0,0,5.24,6.39q3.6,3,9.86,3a15.16,15.16,0,0,0,8.16-2.11,14.33,14.33,0,0,0,5.31-6,21.1,21.1,0,0,0,1.9-9.32V86.36h4.35a20.16,20.16,0,0,1-3.94,7.89,15,15,0,0,1-6.46,4.35,28,28,0,0,1-9.18,1.36q-11.43,0-18.57-4.49a26.37,26.37,0,0,1-10.47-12.38A46.09,46.09,0,0,1,278.79,65V31.28h24.07V64.46a13.17,13.17,0,0,0,3.06,9.05,10.75,10.75,0,0,0,8.5,3.46,11,11,0,0,0,5.65-1.56A11.89,11.89,0,0,0,324.35,71,12.89,12.89,0,0,0,326,64.46V31.28h24.89V92.75q0,12.24-5.17,21.21a36,36,0,0,1-14.08,13.88A41.27,41.27,0,0,1,311.43,132.74Z"/><path class="cls-1" d="M367.6,100.91a14.69,14.69,0,0,1-14.69-14.69,14.22,14.22,0,0,1,2-7.41,14.68,14.68,0,0,1,5.37-5.3,14.81,14.81,0,0,1,14.76,0,14.79,14.79,0,0,1,5.3,5.3,14.22,14.22,0,0,1,2,7.41,14.36,14.36,0,0,1-2,7.35,14.68,14.68,0,0,1-5.3,5.37A14.34,14.34,0,0,1,367.6,100.91Z"/><path class="cls-1" d="M382.81,7.48H408v91.8H382.81Z"/><path class="cls-1" d="M465.78,51.68H407.44V31.28h58.34ZM451.5,101.46q-11,0-18.22-4a25.5,25.5,0,0,1-10.74-11.08,35.24,35.24,0,0,1-3.54-16v-56h24.48V69.5c0,3.26.93,5.78,2.78,7.54a10.51,10.51,0,0,0,7.55,2.66,31.65,31.65,0,0,0,6.06-.69,19.9,19.9,0,0,0,5.91-2V98.6a23.75,23.75,0,0,1-6.66,2.11A43.22,43.22,0,0,1,451.5,101.46Z"/><path class="cls-1" d="M500.27,77.52a9.55,9.55,0,0,0,6.46-2.18,12.49,12.49,0,0,0,3.67-5.78,25.42,25.42,0,0,0,1.15-7.81V31.28H536V64.74A42.33,42.33,0,0,1,532.09,83a31.17,31.17,0,0,1-11.83,13.32q-7.89,5-20,5t-19.93-5A31,31,0,0,1,468.44,83a42.33,42.33,0,0,1-3.94-18.29V31.28H489V61.75a25.42,25.42,0,0,0,1.15,7.81,12.42,12.42,0,0,0,3.68,5.78A9.51,9.51,0,0,0,500.27,77.52Z"/><path class="cls-1" d="M548.53,100.91a14.69,14.69,0,0,1-14.69-14.69,14.22,14.22,0,0,1,2-7.41,14.68,14.68,0,0,1,5.37-5.3,14.81,14.81,0,0,1,14.76,0,14.79,14.79,0,0,1,5.3,5.3,14.22,14.22,0,0,1,2,7.41,14.36,14.36,0,0,1-2,7.35,14.68,14.68,0,0,1-5.3,5.37A14.34,14.34,0,0,1,548.53,100.91Z"/><rect class="cls-2" x="382.81" y="113.74" width="180.4" height="18.99" rx="5.9"/></g></g></svg>